<?xml version="1.0" encoding="UTF-8" standalone="no"?>
<svg
   xmlns:dc="http://purl.org/dc/elements/1.1/"
   xmlns:cc="http://creativecommons.org/ns#"
   xmlns:rdf="http://www.w3.org/1999/02/22-rdf-syntax-ns#"
   xmlns:svg="http://www.w3.org/2000/svg"
   xmlns="http://www.w3.org/2000/svg"
   version="1.1"
   id="svg18165"
   viewBox="0 0 9.666666666666666667 7.333333333333333333"
   height="22"
   width="0.29E2">
  <defs
     id="defs18167" />
  <metadata
     id="metadata18170">
    <rdf:RDF>
      <cc:Work
         rdf:about="">
        <dc:format>image/svg+xml</dc:format>
        <dc:type
           rdf:resource="http://purl.org/dc/dcmitype/StillImage" />
        <dc:title />
        <cc:license
           rdf:resource="https://opensource.org/licenses/MIT" />
      </cc:Work>
    </rdf:RDF>
  </metadata>
  <g
     transform="translate(0.08333333,-1045.0288)"
     id="layer1">
    <path
       id="path12356"
       d="m 7.7500002,1049.0478 -3,-2.3523"
       style="fill:none;fill-rule:evenodd;stroke:#000000;stroke-width:0.59999996;stroke-linecap:round;stroke-linejoin:miter;stroke-miterlimit:4;stroke-dasharray:none;stroke-opacity:1" />
    <path
       style="fill:none;fill-rule:evenodd;stroke:#000000;stroke-width:0.59999996;stroke-linecap:round;stroke-linejoin:miter;stroke-miterlimit:4;stroke-dasharray:none;stroke-opacity:1"
       d="m 1.75,1049.0478 4.2753945,-3.3523"
       id="use12898" />
    <g
       id="text846"
       style="font-style:normal;font-variant:normal;font-weight:normal;font-stretch:normal;font-size:4.16666651px;font-family:'Hiragino Maru Gothic Pro';-inkscape-font-specification:'Hiragino Maru Gothic Pro'"
       aria-label="6">
      <path
         id="path18"
         style="font-style:normal;font-variant:normal;font-weight:normal;font-stretch:normal;font-size:4.16666651px;font-family:'Hiragino Maru Gothic Pro';-inkscape-font-specification:'Hiragino Maru Gothic Pro'"
         d="m 3.9705787,1050.1696 c 0.020833,-0.4625 0.0625,-0.6542 0.1625,-0.8875 0.1375,-0.3209 0.375,-0.4834 0.6833333,-0.4834 0.3375,0 0.5041666,0.15 0.6041666,0.3875 0.033333,0.071 0.091667,0.096 0.1541667,0.096 0.033333,0 0.066667,-0.01 0.095833,-0.017 0.066667,-0.025 0.125,-0.083 0.125,-0.1583 0,-0.025 -0.00417,-0.05 -0.020833,-0.079 -0.1625,-0.3417 -0.4458333,-0.5708 -0.9416667,-0.5708 -0.8249999,0 -1.2249999,0.6541 -1.2249999,1.7375 0,1.0666 0.45,1.6291 1.2041666,1.6291 0.675,0 1.0916666,-0.475 1.0916666,-1.1166 0,-0.6417 -0.4166666,-1.0625 -1.0583333,-1.0625 -0.3958333,0 -0.7041666,0.1916 -0.8749999,0.525 z m 0.8416666,-0.1917 c 0.425,0 0.7083333,0.2875 0.7083333,0.7292 0,0.4583 -0.2833333,0.7708 -0.7208333,0.7708 -0.4208333,0 -0.7375,-0.3208 -0.7375,-0.7583 0,-0.425 0.3125,-0.7417 0.75,-0.7417 z" />
    </g>
  </g>
</svg>
